<?xml version="1.0" encoding="UTF-8"?>
<svg width="700pt" height="700pt" version="1.1" viewBox="0 0 700 700" xmlns="http://www.w3.org/2000/svg">
 <path d="m227.4 47.723c-2.3242 0.003906-4.5508 0.93359-6.1914 2.582-1.6367 1.6445-2.5508 3.8789-2.543 6.2031v113.75h-113.68c-2.332-0.011718-4.5703 0.91016-6.2188 2.5625-1.6484 1.6484-2.5742 3.8867-2.5625 6.2188v47.801c-0.011719 2.332 0.91406 4.5742 2.5625 6.2227s3.8867 2.5703 6.2188 2.5625h12.598v259.15h-12.391c-0.27734-0.011719-0.55859-0.011719-0.83594 0-4.7539 0.33594-8.3672 4.4023-8.1406 9.1602 0.23047 4.7578 4.2148 8.4609 8.9766 8.3398h489.66-0.003906c2.3555 0.054687 4.6328-0.84375 6.3164-2.4922 1.6836-1.6445 2.6328-3.9023 2.6328-6.2578 0-2.3516-0.94922-4.6094-2.6328-6.2539-1.6836-1.6484-3.9609-2.5469-6.3164-2.4961h-12.781v-259.15h12.594c4.832-0.019531 8.7344-3.9531 8.7188-8.7852v-47.801c0.015625-4.832-3.8867-8.7617-8.7188-8.7812h-113.68v-113.75h0.003907c0.019531-4.8359-3.8828-8.7656-8.7148-8.7852zm8.7852 17.516h227.29v429.54h-72.016v-82.098c-0.019532-4.832-3.9531-8.7344-8.7852-8.7148h-65.762c-4.8047 0.019531-8.6953 3.9102-8.7148 8.7148v82.098h-72.02v-315.73zm34.23 31.703h-0.003907c-2.332-0.007812-4.5703 0.91406-6.2188 2.5625-1.6484 1.6484-2.5742 3.8867-2.5625 6.2227v57.629-0.003907c0.019532 4.832 3.9492 8.7344 8.7812 8.7148h56.586c4.832 0.019532 8.7656-3.8828 8.7852-8.7148v-57.629 0.003906c0.007813-2.3359-0.91406-4.5742-2.5625-6.2227-1.6523-1.6484-3.8906-2.5703-6.2227-2.5625zm102.18 0c-4.832 0.019532-8.7344 3.9492-8.7188 8.7852v57.629-0.003907c0.019532 4.8047 3.9102 8.6953 8.7188 8.7148h56.652c4.8047-0.019531 8.6953-3.9102 8.7148-8.7148v-57.629 0.003906c0.019531-4.8359-3.8828-8.7656-8.7148-8.7852zm-93.465 17.516h39.137v40.109h-39.137zm102.25 0h39.086v40.109h-39.09zm-267.66 73.297h104.95v30.367l-104.95 0.003906zm367.26 0h104.9v30.367h-104.89zm-210.56 11.434h-0.007813c-2.332-0.007812-4.5703 0.91406-6.2188 2.5664-1.6484 1.6484-2.5742 3.8867-2.5625 6.2188v57.629c0.019532 4.832 3.9492 8.7344 8.7812 8.7148h56.586c4.832 0.019532 8.7656-3.8828 8.7852-8.7148v-57.629c0.007813-2.332-0.91406-4.5703-2.5625-6.2188-1.6484-1.6523-3.8906-2.5742-6.2227-2.5664zm102.18 0h-0.003906c-4.832 0.019531-8.7344 3.9531-8.7188 8.7852v57.629c0.019532 4.8047 3.9102 8.6953 8.7188 8.7148h56.652c4.8047-0.019531 8.6953-3.9102 8.7148-8.7148v-57.629c0.019531-4.832-3.8828-8.7656-8.7148-8.7852zm-93.465 17.516 39.129 0.003906v40.176h-39.133zm102.25 0h39.086l-0.007812 40.18h-39.086zm-246.28 18.918 83.562 0.003906v259.15h-83.57zm345.88 0h83.586l-0.007813 259.15h-83.586zm-211.48 65.887c-4.4766 0.44531-7.8828 4.2148-7.8789 8.7148v57.629-0.003906c-0.011718 2.332 0.91406 4.5742 2.5625 6.2227 1.6484 1.6484 3.8867 2.5703 6.2188 2.5625h56.586c2.332 0.007813 4.5703-0.91406 6.2227-2.5625 1.6484-1.6484 2.5703-3.8906 2.5625-6.2227v-57.629 0.003906c-0.019531-4.832-3.9531-8.7344-8.7852-8.7148h-56.586c-0.30078-0.015624-0.60156-0.015624-0.90234 0zm102.25 0h-0.003907c-4.4766 0.44531-7.8828 4.2148-7.8789 8.7148v57.629-0.003906c-0.015625 4.832 3.8867 8.7656 8.7188 8.7852h56.652c4.832-0.019531 8.7344-3.9531 8.7148-8.7852v-57.629 0.003906c-0.019532-4.8047-3.9102-8.6992-8.7148-8.7148h-56.652c-0.28125-0.015624-0.55859-0.015624-0.83984 0zm-92.629 17.5h39.137v40.129l-39.137-0.003907zm102.25 0h39.086v40.129l-39.09-0.003907zm-55.68 102.45h48.246v73.316l-48.246-0.003906z"/>
</svg>
